#!OML:ASF E:\Mandelcareful walks\Project 1\Capture day 1\Session 1\Subject1.ASF
:FULLY-SPECIFIED
:DEGREES
643
root -8.30874 14.3539 0.887252 -218.094 82.3692 126.246
lowerback 27.5143 3.46274 -5.60345
upperback 8.74937 3.59648 -3.78775
thorax -5.4226 2.13231 -2.12807
lowerneck -3.9214 23.2919 21.9415
upperneck 16.8663 33.3193 -15.7672
head 12.5371 15.6307 -3.06915
rclavicle -4.77083e-015 9.93923e-016
rhumerus 58.7184 -12.1939 -48.6372
rradius 130.297
rwrist -68.4213
rhand -5.87908 -21.8034
rfingers 7.12502
rthumb 19.9486 -50.7995
lclavicle -4.77083e-015 9.93923e-016
lhumerus -10.7031 -52.8703 78.148
lradius 73.1783
lwrist 1.53784
lhand -13.905 -16.3946
lfingers 7.12502
lthumb 12.2207 13.2283
rfemur -43.4853 -26.2996 -0.950699
rtibia 66.0948
rfoot -24.2786 -8.30465
rtoes -20.9545
lfemur -57.1986 10.6681 -18.4518
ltibia 69.0311
lfoot -21.2802 0.413669
ltoes -11.9254
644
root -8.30182 14.3504 0.894417 -216.726 82.1791 127.649
lowerback 27.6369 3.40202 -5.61557
upperback 8.74313 3.51124 -3.75621
thorax -5.49033 2.09284 -2.06794
lowerneck -4.21472 23.1321 22.2253
upperneck 17.5154 33.0159 -15.2613
head 12.7238 15.5003 -2.97225
rclavicle 1.05356e-014 -1.53064e-014
rhumerus 59.7364 -12.1244 -48.6656
rradius 129.762
rwrist -69.05
rhand -4.22397 -22.4367
rfingers 7.12502
rthumb 21.5389 -51.259
lclavicle 1.05356e-014 -1.53064e-014
lhumerus -10.9136 -52.7855 78.1771
lradius 73.3679
lwrist 1.60549
lhand -14.1668 -16.6784
lfingers 7.12502
lthumb 11.9682 12.9594
rfemur -43.3216 -26.3875 -0.993088
rtibia 66.1483
rfoot -24.2256 -8.6774
rtoes -21.2581
lfemur -57.2217 10.5704 -18.4763
ltibia 69.0266
lfoot -21.2517 0.356271
ltoes -12.0869
645
root -8.29691 14.3471 0.901642 -215.754 81.97 128.655
lowerback 27.3342 3.38907 -5.80472
upperback 9.00092 3.52111 -3.63272
thorax -5.07246 2.09901 -1.79458
lowerneck -5.01448 22.7576 22.5629
upperneck 18.2098 32.339 -14.9248
head 12.9996 15.1665 -2.97892
rclavicle 4.73108e-014 -2.26615e-014
rhumerus 60.6856 -12.1997 -48.5662
rradius 129.776
rwrist -71.5293
rhand -5.53846 -23.9233
rfingers 7.12502
rthumb 20.276 -52.885
lclavicle 4.73108e-014 -2.26615e-014
lhumerus -10.4707 -52.6308 77.9185
lradius 73.4065
lwrist 1.53924
lhand -14.577 -16.6908
lfingers 7.12502
lthumb 11.5727 12.9697
rfemur -43.1524 -26.4908 -1.09209
rtibia 66.2478
rfoot -24.435 -8.66636
rtoes -21.3237
lfemur -57.2524 10.4596 -18.5348
ltibia 69.0896
lfoot -21.2535 0.278946
ltoes -12.1204
646
root -8.29887 14.3398 0.907406 -214.808 82.0394 129.49
lowerback 27.0338 3.42076 -5.80227
upperback 9.09331 3.60102 -3.55398
thorax -4.83215 2.13387 -1.70947
lowerneck -3.53309 22.986 22.4413
upperneck 17.0678 32.8068 -15.3051
head 12.4366 15.4799 -3.15548
rclavicle 4.19436e-014 2.00773e-014
rhumerus 61.4701 -12.337 -48.8093
rradius 129.15
rwrist -72.8076
rhand -3.70529 -23.8282
rfingers 7.12502
rthumb 22.0369 -52.5927
lclavicle 4.19436e-014 2.00773e-014
lhumerus -10.2367 -52.5694 77.7908
lradius 73.4193
lwrist 1.66651
lhand -14.7541 -16.6082
lfingers 7.12502
lthumb 11.4019 13.0618
rfemur -43.3283 -26.4042 -0.898388
rtibia 66.3799
rfoot -24.5849 -8.62362
rtoes -21.1782
lfemur -57.4862 10.5634 -18.4513
ltibia 69.2185
lfoot -21.1861 0.265527
ltoes -12.2036
647
root -8.30944 14.3246 0.907396 -215.241 82.3817 128.768
lowerback 26.6424 3.54202 -5.80697
upperback 9.09751 3.77671 -3.53945
thorax -4.6443 2.21122 -1.71788
lowerneck -3.58972 22.9344 22.7186
upperneck 17.5397 32.6064 -14.631
head 12.4936 15.4311 -3.00754
rclavicle 6.57977e-014 1.33186e-014
rhumerus 62.4929 -12.547 -49.2396
rradius 127.972
rwrist -72.9039
rhand 0.600681 -23.1372
rfingers 7.12502
rthumb 26.1656 -51.3541
lclavicle 6.57977e-014 1.33186e-014
lhumerus -10.0063 -52.5206 77.6221
lradius 73.4438
lwrist 1.83611
lhand -14.5746 -16.4772
lfingers 7.12502
lthumb 11.5751 13.1831
rfemur -43.9932 -26.0962 -0.569779
rtibia 66.5289
rfoot -24.462 -8.84381
rtoes -21.0515
lfemur -57.9582 10.9339 -18.3976
ltibia 69.4101
lfoot -21.1467 0.401931
ltoes -12.1225
648
root -8.30931 14.3218 0.912565 -214.144 82.2898 129.9
lowerback 26.6452 3.5109 -5.82719
upperback 9.15026 3.74527 -3.47335
thorax -4.59193 2.19606 -1.62196
lowerneck -3.46938 22.9332 23.2107
upperneck 18.0509 32.558 -14.1502
head 12.6469 15.4557 -2.90701
rclavicle 2.52457e-014 -2.48481e-014
rhumerus 63.7042 -12.7145 -49.6325
rradius 127.313
rwrist -73.9781
rhand 2.48581 -24.3294
rfingers 7.12502
rthumb 27.9691 -52.2658
lclavicle 2.52457e-014 -2.48481e-014
lhumerus -9.80104 -52.5114 77.5295
lradius 73.3585
lwrist 1.77461
lhand -14.6189 -16.4346
lfingers 7.12502
lthumb 11.5323 13.2281
rfemur -43.8975 -26.1346 -0.547796
rtibia 66.6083
rfoot -24.5215 -9.04853
rtoes -21.2085
lfemur -57.9983 10.8772 -18.322
ltibia 69.5134
lfoot -21.1888 0.409954
ltoes -11.822
649
root -8.3083 14.3218 0.917486 -212.942 82.2724 131.173
lowerback 26.7075 3.49084 -5.87733
upperback 9.16589 3.7113 -3.3336
thorax -4.61621 2.17641 -1.43355
lowerneck -3.44936 22.9307 23.5426
upperneck 18.7441 32.4978 -13.5068
head 12.8259 15.4711 -2.73024
rclavicle 1.41137e-014 -7.53394e-014
rhumerus 64.8664 -12.698 -49.9625
rradius 126.108
rwrist -73.9755
rhand 5.78058 -24.0212
rfingers 7.12502
rthumb 31.1142 -51.4008
lclavicle 1.41137e-014 -7.53394e-014
lhumerus -9.69445 -52.4335 77.6279
lradius 73.2071
lwrist 1.71112
lhand -14.7584 -16.3226
lfingers 7.12502
lthumb 11.3978 13.3476
rfemur -43.7969 -26.1349 -0.447235
rtibia 66.6688
rfoot -24.5772 -9.14211
rtoes -21.4921
lfemur -58.0133 10.8703 -18.1895
ltibia 69.5656
lfoot -21.2083 0.270535
ltoes -11.8757
650
root -8.30795 14.3198 0.921453 -212.062 82.2013 132.098
lowerback 26.6953 3.47017 -6.02513
upperback 9.24115 3.67004 -3.14965
thorax -4.54487 2.15166 -1.13171
lowerneck -3.43606 22.8879 23.7011
upperneck 19.235 32.3871 -13.0155
head 12.9207 15.4544 -2.60724
rclavicle 1.05356e-014 5.1684e-015
rhumerus 65.9192 -12.6312 -50.1487
rradius 125.566
rwrist -75.0361
rhand 8.36342 -24.758
rfingers 7.12502
rthumb 33.5725 -51.6357
lclavicle 1.05356e-014 5.1684e-015
lhumerus -9.53992 -52.2647 77.7355
lradius 73.1311
lwrist 1.71436
lhand -14.5932 -16.2532
lfingers 7.12502
lthumb 11.5571 13.4081
rfemur -43.7366 -26.2025 -0.410197
rtibia 66.7265
rfoot -24.6149 -9.20173
rtoes -21.3407
lfemur -58.0251 10.7739 -18.1291
ltibia 69.5577
lfoot -21.1963 0.0653127
ltoes -12.0499
651
root -8.31065 14.3121 0.923893 -211.507 82.1308 132.639
lowerback 26.645 3.48319 -6.12237
upperback 9.30414 3.68295 -3.0016
thorax -4.4653 2.1535 -0.912562
lowerneck -3.28246 22.7521 23.8525
upperneck 19.4045 32.1872 -12.819
head 12.9092 15.3971 -2.62752
rclavicle -1.82882e-014 1.23246e-014
rhumerus 66.8963 -12.6922 -50.2956
rradius 124.624
rwrist -75.4195
rhand 9.22066 -25.0491
rfingers 7.12502
rthumb 34.3868 -51.7462
lclavicle -1.82882e-014 1.23246e-014
lhumerus -9.40375 -52.2831 77.8099
lradius 73.125
lwrist 1.74097
lhand -14.5017 -16.3192
lfingers 7.12502
lthumb 11.6454 13.3372
rfemur -43.7676 -26.3079 -0.384365
rtibia 66.8001
rfoot -24.6876 -9.1045
rtoes -21.2112
lfemur -58.0943 10.6499 -18.0876
ltibia 69.5754
lfoot -21.1772 -0.0412666
ltoes -11.8438
652
root -8.31557 14.3037 0.927045 -210.871 82.1283 133.245
lowerback 26.6145 3.50378 -6.19108
upperback 9.33574 3.70498 -2.84347
thorax -4.43038 2.15883 -0.704128
lowerneck -3.26275 22.632 23.9283
upperneck 19.6203 32.0092 -12.6576
head 12.9386 15.3332 -2.62943
rclavicle 9.14409e-015 4.13472e-014
rhumerus 67.8423 -12.7276 -50.4293
rradius 123.829
rwrist -76.1428
rhand 11.6554 -25.7071
rfingers 7.12502
rthumb 36.6947 -51.8498
lclavicle 9.14409e-015 4.13472e-014
lhumerus -9.30472 -52.3361 77.8844
lradius 73.0993
lwrist 1.73996
lhand -14.632 -16.318
lfingers 7.12502
lthumb 11.5197 13.3455
rfemur -43.8386 -26.3501 -0.294507
rtibia 66.8816
rfoot -24.7902 -8.92121
rtoes -20.9806
lfemur -58.2107 10.6186 -18.0052
ltibia 69.6204
lfoot -21.1714 -0.0726731
ltoes -11.7475
653
root -8.31892 14.3014 0.928083 -210.886 82.1019 133.244
lowerback 26.6874 3.50872 -6.34318
upperback 9.34751 3.67572 -2.71236
thorax -4.46646 2.14049 -0.470248
lowerneck -3.09143 22.5513 23.9604
upperneck 19.6013 31.9128 -12.634
head 12.8836 15.3078 -2.67337
rclavicle -9.54166e-015 2.04748e-014
rhumerus 68.7278 -12.6294 -50.5564
rradius 123.054
rwrist -76.866
rhand 13.6893 -26.353
rfingers 7.12502
rthumb 38.6165 -51.9818
lclavicle -9.54166e-015 2.04748e-014
lhumerus -9.3063 -52.293 77.9914
lradius 73.0745
lwrist 1.7492
lhand -14.6078 -16.3637
lfingers 7.12502
lthumb 11.543 13.2985
rfemur -43.8491 -26.3788 -0.33201
rtibia 66.9423
rfoot -24.7369 -8.90801
rtoes -20.5031
lfemur -58.2356 10.5971 -18.023
ltibia 69.6624
lfoot -21.1892 -0.0782948
ltoes -11.8137
654
root -8.32234 14.2992 0.927276 -210.83 82.0496 133.311
lowerback 26.8751 3.50219 -6.33384
upperback 9.25418 3.64273 -2.64746
thorax -4.66368 2.12391 -0.410165
lowerneck -4.01335 22.6335 23.5631
upperneck 20.8138 31.8377 -11.6039
head 13.2333 15.2476 -2.1945
rclavicle -1.11319e-014 7.95139e-016
rhumerus 69.2642 -12.5234 -50.594
rradius 122.221
rwrist -77.4632
rhand 16.1765 -26.8037
rfingers 7.12502
rthumb 40.9579 -51.7334
lclavicle -1.11319e-014 7.95139e-016
lhumerus -9.54863 -52.4375 78.2289
lradius 73.102
lwrist 1.84646
lhand -14.4891 -16.3832
lfingers 7.12502
lthumb 11.6575 13.2725
rfemur -43.8748 -26.4906 -0.364082
rtibia 66.9898
rfoot -24.7314 -8.94976
rtoes -21.156
lfemur -58.2457 10.5052 -18.034
ltibia 69.71
lfoot -21.1877 -0.0790558
ltoes -11.6168
655
root -8.32787 14.2961 0.925761 -210.564 82.0886 133.523
lowerback 26.9262 3.50795 -6.2411
upperback 9.16523 3.65421 -2.6109
thorax -4.78739 2.12789 -0.433045
lowerneck -3.93072 22.5748 23.6764
upperneck 21.1623 31.753 -11.3116
head 13.3039 15.2388 -2.13199
rclavicle -2.62396e-014 6.36111e-015
rhumerus 69.693 -12.4896 -50.6118
rradius 121.475
rwrist -77.9342
rhand 18.1672 -27.6392
rfingers 7.12502
rthumb 42.8241 -51.947
lclavicle -2.62396e-014 6.36111e-015
lhumerus -9.7352 -52.6368 78.3949
lradius 73.1372
lwrist 1.90443
lhand -14.5335 -16.4845
lfingers 7.12502
lthumb 11.6147 13.1736
rfemur -44.0178 -26.5748 -0.261567
rtibia 67.0212
rfoot -24.7892 -8.90142
rtoes -21.8809
lfemur -58.3997 10.4813 -18.0015
ltibia 69.775
lfoot -21.161 0.0647767
ltoes -12.196
656
root -8.33325 14.2961 0.922214 -211.012 82.1892 133.014
lowerback 26.8604 3.52223 -6.31184
upperback 9.15283 3.65589 -2.60239
thorax -4.77347 2.12596 -0.380897
lowerneck -3.39076 22.4112 24.11
upperneck 20.9246 31.5845 -11.4594
head 13.189 15.2185 -2.32865
rclavicle 3.97569e-015 -1.49089e-014
rhumerus 70.2999 -12.3111 -50.6723
rradius 120.818
rwrist -78.313
rhand 19.6475 -28.8306
rfingers 7.12502
rthumb 44.2066 -52.636
lclavicle 3.97569e-015 -1.49089e-014
lhumerus -9.75439 -52.6439 78.389
lradius 73.0954
lwrist 1.80886
lhand -14.6524 -16.6246
lfingers 7.12502
lthumb 11.4999 13.0399
rfemur -44.1893 -26.541 -0.209429
rtibia 67.0133
rfoot -24.5837 -8.9441
rtoes -21.2809
lfemur -58.5555 10.5554 -18.0431
ltibia 69.8341
lfoot -21.1231 0.26566
ltoes -13.0231
657
root -8.33816 14.2914 0.920974 -211.216 82.2516 132.778
lowerback 26.8544 3.52977 -6.38704
upperback 9.13912 3.64549 -2.56068
thorax -4.79158 2.11838 -0.289871
lowerneck -3.38778 22.1888 24.3591
upperneck 21.1262 31.2011 -11.1793
head 13.1864 15.0893 -2.3585
rclavicle 1.82882e-014 -2.68359e-014
rhumerus 70.606 -11.822 -50.2466
rradius 120.062
rwrist -78.5211
rhand 20.7825 -27.7752
rfingers 7.12502
rthumb 45.2633 -51.1703
lclavicle 1.82882e-014 -2.68359e-014
lhumerus -9.75829 -52.6562 78.4169
lradius 72.9859
lwrist 1.63977
lhand -14.7163 -16.5289
lfingers 7.12502
lthumb 11.4384 13.1391
rfemur -44.3134 -26.5106 -0.169103
rtibia 67.013
rfoot -24.3795 -9.0541
rtoes -21.1536
lfemur -58.5857 10.5882 -18.0196
ltibia 69.875
lfoot -21.0918 0.206861
ltoes -12.4254
